# xmcd
#
# Track frame offsets:
#	183
#	12913
#	25988
#	41163
#	54700
#	66238
#	78575
#	92828
#	100870
#	112710
#	128140
#	142658
#	157220
#	170740
#	182913
#	193893
#
# Disc length: 2831 seconds
#
# Revision: 1
# Processed by: cddbd v1.4b42PL1 Copyright (c) Steve Scherf et al.
# Submitted via: audiograbber 1.80
#
DISCID=df0b0d10
DTITLE=Truck Stop - Hello Josephine
DYEAR=1900
DGENRE=
TTITLE0=Hello Josephine
TTITLE1=Roll In My Sweet Baby's Arms
TTITLE2=It's So Hard For A Man
TTITLE3=You'll Find The Way
TTITLE4=Is Anybody Goin' To San Antone
TTITLE5=Uh, Gee
TTITLE6=Prison Bound
TTITLE7=Let It Rock
TTITLE8=Oakie From Muskogie
TTITLE9=Wait A Little Longer Please Jesus
TTITLE10=Please Let Me Know
TTITLE11=Dorraine
TTITLE12=I Know You're Married
TTITLE13=I'm A Nut
TTITLE14=Are You Missin' Me
TTITLE15=Liberty
EXTD=
EXTT0=
EXTT1=
EXTT2=
EXTT3=
EXTT4=
EXTT5=
EXTT6=
EXTT7=
EXTT8=
EXTT9=
EXTT10=
EXTT11=
EXTT12=
EXTT13=
EXTT14=
EXTT15=
PLAYORDER=
